<svg width="102" height="37" viewBox="0 0 102 37" fill="none" xmlns="http://www.w3.org/2000/svg">
    <path d="M14.1825 23.2907V27.9225H17.6832C17.9845 27.9263 18.2833 27.8668 18.5604 27.7479C18.8375 27.629 19.0868 27.4533 19.2924 27.2321C19.498 27.0109 19.6554 26.749 19.7544 26.4632C19.8534 26.1774 19.8919 25.874 19.8675 25.5724C19.8894 25.2737 19.8487 24.9737 19.7481 24.6917C19.6476 24.4098 19.4893 24.1521 19.2835 23.9353C19.0777 23.7185 18.829 23.5474 18.5534 23.433C18.2778 23.3187 17.9813 23.2635 17.6832 23.2711L14.1825 23.2907ZM11.0231 20.5195H17.966C18.6447 20.4895 19.3225 20.5978 19.9585 20.8379C20.5944 21.0781 21.1753 21.4451 21.6662 21.9168C22.1571 22.3885 22.5477 22.9551 22.8146 23.5825C23.0815 24.21 23.2191 24.8852 23.2191 25.5675C23.2191 26.2497 23.0815 26.9249 22.8146 27.5524C22.5477 28.1798 22.1571 28.7465 21.6662 29.2182C21.1753 29.6899 20.5944 30.0568 19.9585 30.297C19.3225 30.5371 18.6447 30.6455 17.966 30.6154H14.1825V36.9609H11.0231V20.5195Z" fill="#0D0F11"/>
    <path d="M40.1309 36.9609H36.6399L31.5693 24.27L26.4889 36.9609H23.1442L30.0481 20.5195H33.227L40.1309 36.9609Z" fill="#0D0F11"/>
    <path d="M44.3431 23.2907V27.5895H47.3368C47.6334 27.6125 47.9316 27.5736 48.2125 27.4752C48.4934 27.3767 48.751 27.221 48.969 27.0177C49.187 26.8144 49.3607 26.568 49.4792 26.2939C49.5977 26.0199 49.6585 25.7242 49.6576 25.4254C49.6588 25.1278 49.5981 24.8332 49.4793 24.5606C49.3605 24.2879 49.1862 24.0433 48.9677 23.8422C48.7491 23.6412 48.4912 23.4883 48.2103 23.3933C47.9294 23.2983 47.6319 23.2634 47.3368 23.2907H44.3431ZM41.1935 37V20.5194H47.8536C48.5029 20.5051 49.1484 20.6211 49.7524 20.8608C50.3564 21.1004 50.9066 21.4588 51.3708 21.9148C51.8349 22.3709 52.2037 22.9156 52.4554 23.5167C52.7071 24.1179 52.8367 24.7635 52.8365 25.4156C52.8309 26.3672 52.5432 27.2954 52.01 28.082C51.4768 28.8686 50.7224 29.4779 49.8429 29.832L53.9287 36.9608H50.3597L46.6347 30.2433H44.3431V36.9608L41.1935 37Z" fill="#0D0F11"/>
    <path d="M58.2975 20.5195V27.4916L64.7236 20.5195H68.6826L61.0278 28.6472L68.8679 36.9609H64.6553L58.2975 30.0768V36.9609H55.1381V20.5195H58.2975Z" fill="#0D0F11"/>
    <path d="M69.8817 20.5195H80.1986V23.2907H73.0411V27.3546H79.9645V30.0475H73.0411V34.1896H80.1986V36.9609H69.8817V20.5195Z" fill="#0D0F11"/>
    <path d="M85.6006 23.2907V27.5895H88.604C88.9002 27.6126 89.1979 27.5736 89.4783 27.4751C89.7587 27.3766 90.0156 27.2207 90.2329 27.0172C90.4501 26.8138 90.6229 26.5673 90.7404 26.2933C90.8578 26.0192 90.9173 25.7237 90.915 25.4254C90.9162 25.1287 90.8557 24.835 90.7375 24.5631C90.6192 24.2912 90.4459 24.047 90.2284 23.8461C90.0109 23.6453 89.7542 23.4921 89.4745 23.3965C89.1948 23.3009 88.8983 23.2648 88.604 23.2907H85.6006ZM82.4509 37V20.5194H89.1111C89.7603 20.5051 90.4059 20.6211 91.0098 20.8608C91.6138 21.1004 92.164 21.4588 92.6282 21.9148C93.0924 22.3709 93.4611 22.9156 93.7128 23.5167C93.9645 24.1179 94.0941 24.7635 94.094 25.4156C94.0884 26.3672 93.8007 27.2954 93.2675 28.082C92.7343 28.8686 91.9798 29.4779 91.1003 29.832L95.1666 36.9511H91.6171L87.8921 30.2335H85.6006V36.9511L82.4509 37Z" fill="#0D0F11"/>
    <path d="M11.4809 16.9315L7.16675 0.268397H10.3161L13.7027 14.4711H12.883L16.4206 0.268397H19.4621L22.9781 14.4711H22.1584L25.5451 0.268397H28.6944L24.3802 16.9315H21.0152L17.456 3.10895H18.4051L14.8459 16.9315H11.4809Z" fill="#0D0F11"/>
    <path d="M30.4747 16.9315V0.268397H36.4498C37.5427 0.268397 38.5062 0.477152 39.3402 0.894661C40.1887 1.29726 40.8502 1.8937 41.3248 2.68398C41.7993 3.45935 42.0366 4.4062 42.0366 5.52453C42.0366 6.67268 41.7706 7.64935 41.2385 8.45454C40.7208 9.25974 40.0161 9.85618 39.1245 10.2439L42.8131 16.9315H39.4912L35.5438 9.6176L37.442 10.7807H33.4083V16.9315H30.4747ZM33.4083 8.09668H36.4929C37.025 8.09668 37.4852 7.9923 37.8734 7.78355C38.2617 7.55988 38.5637 7.25421 38.7794 6.86652C38.9951 6.47884 39.103 6.0315 39.103 5.52453C39.103 5.00264 38.9951 4.55531 38.7794 4.18254C38.5637 3.79485 38.2617 3.49663 37.8734 3.28788C37.4852 3.06421 37.025 2.95238 36.4929 2.95238H33.4083V8.09668Z" fill="#0D0F11"/>
    <path d="M63.6734 16.9315V0.268397H65.9599L74.804 12.6147L73.6176 12.8607V0.268397H76.5512V16.9315H74.2431L65.5285 4.49567L66.6071 4.24964V16.9315H63.6734Z" fill="#0D0F11"/>
    <path d="M87.2764 17.1999C86.126 17.1999 85.0618 16.9836 84.084 16.5512C83.1061 16.1188 82.2504 15.5149 81.517 14.7395C80.7836 13.9642 80.2084 13.0546 79.7914 12.0108C79.3887 10.967 79.1874 9.82636 79.1874 8.58874C79.1874 7.35113 79.3815 6.21044 79.7698 5.16667C80.1725 4.10798 80.7333 3.19841 81.4523 2.43795C82.1857 1.66258 83.0414 1.06614 84.0192 0.648629C84.9971 0.21621 86.0613 0 87.2117 0C88.3622 0 89.3904 0.201299 90.2963 0.603896C91.2167 1.00649 91.9932 1.54329 92.626 2.21428C93.2587 2.87037 93.7117 3.59355 93.9849 4.38384L91.3749 5.6811C91.0729 4.81626 90.5624 4.11544 89.8434 3.57864C89.1243 3.04185 88.2471 2.77345 87.2117 2.77345C86.2051 2.77345 85.3135 3.01948 84.5369 3.51154C83.7748 4.00361 83.178 4.68206 82.7466 5.5469C82.3295 6.41174 82.121 7.42568 82.121 8.58874C82.121 9.7518 82.3367 10.7732 82.7681 11.653C83.2139 12.5178 83.8251 13.1962 84.6017 13.6883C85.3782 14.1804 86.2698 14.4264 87.2764 14.4264C88.0961 14.4264 88.8511 14.2624 89.5414 13.9343C90.2316 13.5914 90.7853 13.1142 91.2023 12.5029C91.6193 11.8766 91.8279 11.1385 91.8279 10.2886V9.01371L93.1653 10.2215H87.2117V7.64935H94.7615V9.32684C94.7615 10.6092 94.553 11.7424 94.1359 12.7265C93.7189 13.7107 93.1509 14.5382 92.4319 15.2092C91.7272 15.8653 90.9291 16.3648 90.0375 16.7078C89.1459 17.0358 88.2255 17.1999 87.2764 17.1999Z" fill="#0D0F11"/>
    <path d="M49.352 16.5512C48.3309 16.1188 47.4393 15.5149 46.6772 14.7395C45.915 13.9642 45.3182 13.0546 44.8868 12.0108C44.4698 10.9521 44.2613 9.81145 44.2613 8.58874C44.2613 7.35113 44.4698 6.21044 44.8868 5.16667C45.3038 4.12289 45.8934 3.21332 46.6556 2.43795C47.4178 1.66258 48.3094 1.06614 49.3304 0.648629C50.3514 0.21621 51.4587 0 52.6523 0C53.8459 0 54.9532 0.21621 55.9742 0.648629C56.9952 1.08105 57.8868 1.68494 58.649 2.46032C59.4111 3.22078 60.0007 4.12289 60.4178 5.16667C60.8492 6.21044 61.0649 7.35113 61.0649 8.58874C61.0649 9.81145 60.8492 10.9521 60.4178 12.0108C59.9864 13.0546 59.3896 13.9642 58.6274 14.7395C57.8652 15.5149 56.9736 16.1188 55.9526 16.5512L54.8309 14.0014C55.4924 13.7032 56.0677 13.2932 56.5566 12.7713C57.0599 12.2494 57.441 11.6306 57.6999 10.9149C57.9731 10.1991 58.1097 9.42376 58.1097 8.58874C58.1097 7.75373 57.9731 6.98581 57.6999 6.28499C57.441 5.56926 57.0599 4.95046 56.5566 4.42857C56.0677 3.89177 55.4924 3.48172 54.8309 3.19841C54.1694 2.9151 53.4432 2.77345 52.6523 2.77345C51.8757 2.77345 51.1567 2.9151 50.4952 3.19841C49.8337 3.48172 49.2513 3.89177 48.748 4.42857C48.259 4.95046 47.878 5.56926 47.6047 6.28499C47.3315 6.98581 47.1949 7.75373 47.1949 8.58874C47.1949 9.42376 47.3315 10.1991 47.6047 10.9149C47.878 11.6306 48.259 12.2494 48.748 12.7713C49.2513 13.2932 49.8337 13.7032 50.4952 14.0014L49.352 16.5512Z" fill="#0D0F11"/>
</svg>
